# xmcd
#
# Track frame offsets:
#	150
#	17177
#	30624
#	46539
#	63384
#	93034
#	121343
#	145183
#
# Disc length: 2115 seconds
#
# Revision: 1
# Processed by: cddbd v1.5.2PL0 Copyright (c) Steve Scherf et al.
# Submitted via: audiograbber 1.83.01
#
DISCID=5c084108
DTITLE=Real De Catorce - Una Razón Para Vivir [CD 01]
DYEAR=2012
DGENRE=Blues
TTITLE0=Mala Sangre
TTITLE1=Barrio De Asonada
TTITLE2=La Bala Maldita
TTITLE3=Caos
TTITLE4=Al Cuarto Para Las Dos
TTITLE5=Tres Segundos
TTITLE6=Lo Peor De Todo
TTITLE7=Testamento
EXTD=
EXTT0=
EXTT1=
EXTT2=
EXTT3=
EXTT4=
EXTT5=
EXTT6=
EXTT7=
PLAYORDER=
